<svg xmlns="http://www.w3.org/2000/svg" xmlns:xlink="http://www.w3.org/1999/xlink" aria-hidden="true" role="img" class="iconify iconify--logos" width="35.93" height="32" preserveAspectRatio="xMidYMid meet" viewBox="0 0 256 228"><path fill="#00D8FF" d="M210.483 73.824a171.49 171.49 0 0 0-8.24-2.597c.465-1.9.893-3.777 1.273-5.621c6.238-30.281 2.16-54.676-11.769-62.708c-13.355-7.7-35.196.329-57.254 19.526a171.23 171.23 0 0 0-6.375 5.848a155.866 155.866 0 0 0-4.241-3.917C100.759 3.829 77.587-4.822 63.673 3.233C50.33 10.957 46.379 33.89 51.995 62.588a170.974 170.974 0 0 0 1.892 8.48c-3.28.932-6.445 1.924-9.474 2.98C17.309 83.498 0 98.307 0 113.668c0 15.865 18.582 31.778 46.812 41.427a145.52 145.52 0 0 0 6.921 2.165a167.467 167.467 0 0 0-2.01 9.138c-5.354 28.2-1.173 50.591 12.134 58.266c13.744 7.926 36.812-.22 59.273-19.855a145.567 145.567 0 0 0 5.342-4.923a168.064 168.064 0 0 0 6.92 6.314c21.758 18.722 43.691 26.282 56.554 18.586c13.256-7.943 17.424-32.003 11.901-61.268a145.016 145.016 0 0 0-1.535-6.842c1.62-.48 3.21-.974 4.76-1.488c29.348-9.723 48.443-25.443 48.443-41.52c0-15.417-17.868-30.326-45.517-39.844Zm-6.365 70.984c-1.4.463-2.836.91-4.3 1.345c-3.24-10.257-7.612-21.163-12.963-32.432c5.106-11 9.31-21.767 12.459-31.957c2.619.758 5.16 1.557 7.61 2.4c23.69 8.156 38.14 20.213 38.14 29.504c0 9.896-15.606 22.743-40.946 31.14Zm-10.514 20.834c2.562 12.94 2.927 24.64 1.23 33.787c-1.524 8.219-4.59 13.698-8.382 15.893c-8.067 4.67-25.32-1.4-43.927-17.412a156.8 156.8 0 0 1-6.437-5.87c7.214-7.889 14.423-17.06 21.459-27.246c12.376-1.1 24.068-2.894 34.667-5.345a134.17 134.17 0 0 1 1.39 6.195ZM87.276 214.515c-6.671 3.857-22.816-1.015-39.812-16.6a144.318 144.318 0 0 1-5.342-4.92c7.214-7.888 14.423-17.06 21.459-27.246c10.603 2.45 22.295 4.245 34.67 5.345a156.8 156.8 0 0 1 6.437 5.87c-7.568 8.267-15.17 18.4-22.412 30.551Zm-2.24-46.603c-5.105 11-9.31 21.767-12.458 31.957a134.853 134.853 0 0 1-7.61-2.4C52.394 185.1 38.944 173.043 38.944 163.152c0-9.291 14.45-21.348 38.14-29.504c2.45-.843 5.08-1.642 7.61-2.4c3.148 10.19 7.353 20.957 12.458 31.957Zm8.24-87.05c-10.603-2.45-22.295-4.245-34.67-5.345a156.8 156.8 0 0 1-6.437-5.87c7.568-8.267 15.17-18.4 22.412-30.551c8.067 4.67 25.32 1.4 43.927 17.412a156.8 156.8 0 0 1 6.437 5.87c-7.214 7.888-14.423 17.06-21.459 27.246Zm11.521 33.897c-12.376 1.1-24.068 2.894-34.667 5.345a134.17 134.17 0 0 1-1.39-6.195c-2.562-12.94-2.927-24.64-1.23-33.787c1.524-8.219 4.59-13.698 8.382-15.893c8.067-4.67 25.32 1.4 43.927 17.412a156.8 156.8 0 0 1 6.437 5.87c-7.214 7.888-14.423 17.06-21.459 27.246Zm45.6 15.974c-5.106-11-9.31-21.767-12.459-31.957c-2.619-.758-5.16-1.557-7.61-2.4c-23.69-8.156-38.14-20.213-38.14-29.504c0-9.896 15.606-22.743 40.946-31.14c1.4-.463 2.836-.91 4.3-1.345c3.24 10.257 7.612 21.163 12.963 32.432ZM128 90.808c12.406 0 22.46 10.054 22.46 22.46s-10.054 22.46-22.46 22.46s-22.46-10.054-22.46-22.46s10.054-22.46 22.46-22.46Z"></path></svg>
